<svg width="600" height="93" viewBox="0 0 600 93" fill="none" xmlns="http://www.w3.org/2000/svg">
<path fill-rule="evenodd" clip-rule="evenodd" d="M51.7464 0H0V92.1587H28.7335L51.7464 0ZM40.6071 92.1587L63.6199 0H149.758V92.1587H40.6071Z" fill="white"/>
<path d="M209.113 60.3029H186.805L181 72.959H172.529L198.313 17.576L223.187 72.959H214.581L209.113 60.3029ZM205.907 52.9118L198.178 35.1933L190.079 52.9118H205.907Z" fill="white"/>
<path d="M226.393 56.2867C226.393 51.5393 228.092 47.5006 231.489 44.1706C234.887 40.8407 239.027 39.1757 243.909 39.1757C248.814 39.1757 252.976 40.8519 256.396 44.2044C259.771 47.5568 261.459 51.6743 261.459 56.5567C261.459 61.4841 259.76 65.6128 256.363 68.9428C252.943 72.2502 248.746 73.904 243.774 73.904C238.847 73.904 234.718 72.2165 231.388 68.8415C228.058 65.5116 226.393 61.3266 226.393 56.2867ZM234.155 56.4217C234.155 59.7067 235.033 62.3054 236.788 64.2179C238.588 66.1528 240.962 67.1203 243.909 67.1203C246.879 67.1203 249.253 66.1641 251.03 64.2516C252.808 62.3391 253.696 59.7854 253.696 56.5905C253.696 53.3955 252.808 50.8418 251.03 48.9293C249.23 46.9944 246.856 46.0269 243.909 46.0269C241.007 46.0269 238.655 46.9944 236.855 48.9293C235.055 50.8643 234.155 53.3618 234.155 56.4217Z" fill="white"/>
<path d="M277.76 47.1744V72.959H270.166V47.1744H266.926V40.087H270.166V28.0384H277.76V40.087H283.666V47.1744H277.76Z" fill="white"/>
<path d="M287.75 56.2867C287.75 51.5393 289.448 47.5006 292.846 44.1706C296.243 40.8407 300.383 39.1757 305.266 39.1757C310.171 39.1757 314.333 40.8519 317.753 44.2044C321.128 47.5568 322.815 51.6743 322.815 56.5567C322.815 61.4841 321.117 65.6128 317.719 68.9428C314.299 72.2502 310.103 73.904 305.131 73.904C300.203 73.904 296.075 72.2165 292.745 68.8415C289.415 65.5116 287.75 61.3266 287.75 56.2867ZM295.512 56.4217C295.512 59.7067 296.39 62.3054 298.144 64.2179C299.944 66.1528 302.318 67.1203 305.266 67.1203C308.236 67.1203 310.609 66.1641 312.387 64.2516C314.164 62.3391 315.053 59.7854 315.053 56.5905C315.053 53.3955 314.164 50.8418 312.387 48.9293C310.587 46.9944 308.213 46.0269 305.266 46.0269C302.363 46.0269 300.012 46.9944 298.212 48.9293C296.412 50.8643 295.512 53.3618 295.512 56.4217Z" fill="white"/>
<path d="M338.475 15.9561V50.7181L349.174 40.087H359.366L345.09 53.8905L360.412 72.959H350.557L339.69 59.0879L338.475 60.3029V72.959H330.882V15.9561H338.475Z" fill="white"/>
<path d="M372.9 40.087V72.959H365.306V40.087H372.9ZM364.159 26.4184C364.159 25.0909 364.642 23.9434 365.61 22.976C366.577 22.0085 367.736 21.5247 369.086 21.5247C370.458 21.5247 371.628 22.0085 372.596 22.976C373.563 23.9209 374.047 25.0797 374.047 26.4522C374.047 27.8246 373.563 28.9946 372.596 29.9621C371.651 30.9296 370.492 31.4133 369.12 31.4133C367.747 31.4133 366.577 30.9296 365.61 29.9621C364.642 28.9946 364.159 27.8134 364.159 26.4184Z" fill="white"/>
<path d="M390.348 47.1744V72.959H382.755V47.1744H379.515V40.087H382.755V28.0384H390.348V40.087H396.254V47.1744H390.348Z" fill="white"/>
<path d="M420.52 45.6894L414.243 49.0306C413.253 47.0056 412.027 45.9931 410.564 45.9931C409.867 45.9931 409.27 46.2294 408.775 46.7019C408.28 47.1519 408.033 47.7368 408.033 48.4568C408.033 49.7168 409.495 50.9655 412.42 52.203C416.448 53.9355 419.159 55.533 420.554 56.9955C421.949 58.4579 422.646 60.4267 422.646 62.9016C422.646 66.0741 421.476 68.729 419.136 70.8665C416.864 72.8915 414.119 73.904 410.902 73.904C405.389 73.904 401.485 71.2153 399.191 65.8378L405.67 62.8341C406.57 64.4091 407.257 65.4103 407.729 65.8378C408.652 66.6928 409.754 67.1203 411.037 67.1203C413.602 67.1203 414.884 65.9503 414.884 63.6104C414.884 62.2604 413.894 61.0004 411.914 59.8304C411.149 59.4479 410.384 59.0767 409.619 58.7167C408.854 58.3567 408.078 57.9854 407.29 57.603C405.085 56.523 403.533 55.443 402.633 54.363C401.485 52.9905 400.912 51.2243 400.912 49.0643C400.912 46.2069 401.89 43.8444 403.848 41.9769C405.85 40.1095 408.28 39.1757 411.138 39.1757C415.345 39.1757 418.473 41.3469 420.52 45.6894Z" fill="white"/>
<path d="M437.091 40.087V58.9529C437.091 64.3979 439.24 67.1203 443.537 67.1203C447.835 67.1203 449.984 64.3979 449.984 58.9529V40.087H457.577V59.1217C457.577 61.7541 457.251 64.0266 456.598 65.9391C455.968 67.6491 454.877 69.1903 453.325 70.5628C450.76 72.7902 447.497 73.904 443.537 73.904C439.6 73.904 436.349 72.7902 433.784 70.5628C432.209 69.1903 431.095 67.6491 430.443 65.9391C429.813 64.4091 429.498 62.1366 429.498 59.1217V40.087H437.091Z" fill="white"/>
<path d="M467.162 40.087H474.756V43.0232C476.151 41.5607 477.388 40.5594 478.468 40.0195C479.571 39.457 480.876 39.1757 482.383 39.1757C484.386 39.1757 486.478 39.8282 488.66 41.1332L485.184 48.0856C483.744 47.0506 482.338 46.5331 480.966 46.5331C476.826 46.5331 474.756 49.6606 474.756 55.9155V72.959H467.162V40.087Z" fill="white"/>
<path d="M501.688 40.087V58.9529C501.688 64.3979 503.837 67.1203 508.134 67.1203C512.431 67.1203 514.58 64.3979 514.58 58.9529V40.087H522.174V59.1217C522.174 61.7541 521.848 64.0266 521.195 65.9391C520.565 67.6491 519.474 69.1903 517.921 70.5628C515.356 72.7902 512.094 73.904 508.134 73.904C504.197 73.904 500.945 72.7902 498.38 70.5628C496.805 69.1903 495.692 67.6491 495.039 65.9391C494.409 64.4091 494.094 62.1366 494.094 59.1217V40.087H501.688Z" fill="white"/>
<path d="M542.12 66.8503L527.337 40.087H536.146L546.203 58.9867L555.586 40.087H564.158L537.969 90.8462H529.295L542.12 66.8503Z" fill="white"/>
<path d="M592.373 40.087H600V72.959H592.373V69.5165C589.245 72.4415 585.882 73.904 582.282 73.904C577.737 73.904 573.979 72.2615 571.009 68.9765C568.062 65.6241 566.588 61.4391 566.588 56.4217C566.588 51.4943 568.062 47.3881 571.009 44.1031C573.957 40.8182 577.647 39.1757 582.079 39.1757C585.904 39.1757 589.335 40.7507 592.373 43.9007V40.087ZM574.35 56.4217C574.35 59.5717 575.194 62.1366 576.882 64.1166C578.614 66.1191 580.797 67.1203 583.429 67.1203C586.242 67.1203 588.514 66.1528 590.246 64.2179C591.979 62.2154 592.845 59.6729 592.845 56.5905C592.845 53.508 591.979 50.9655 590.246 48.9631C588.514 47.0056 586.264 46.0269 583.497 46.0269C580.887 46.0269 578.704 47.0169 576.949 48.9968C575.217 50.9993 574.35 53.4743 574.35 56.4217Z" fill="white"/>
</svg>
